<?xml version="1.0" encoding="utf-8"?>
<!-- Generator: Adobe Illustrator 16.0.0, SVG Export Plug-In . SVG Version: 6.00 Build 0)  -->
<!DOCTYPE svg PUBLIC "-//W3C//DTD SVG 1.1//EN" "http://www.w3.org/Graphics/SVG/1.1/DTD/svg11.dtd">
<svg version="1.1" id="Layer_1" xmlns="http://www.w3.org/2000/svg" xmlns:xlink="http://www.w3.org/1999/xlink" x="0px" y="0px"
	 width="226.77px" height="226.77px" viewBox="0 0 226.77 226.77" enable-background="new 0 0 226.77 226.77" xml:space="preserve">
<g>
	<path fill="#04B09F" d="M150.063,204.378H76.706v-24.533c0-15.007,12.166-27.172,27.172-27.172h19.013
		c15.007,0,27.172,12.165,27.172,27.172V204.378z"/>
	<path opacity="0.05" fill="#010101" d="M122.892,152.673h-0.075c10.672,3.98,18.274,14.261,18.274,26.319v25.386h8.973v-24.533
		C150.063,164.838,137.898,152.673,122.892,152.673z"/>
	<path fill="#E8B894" d="M122.358,157.529L122.358,157.529c-5.326,3.963-12.621,3.963-17.947,0l0,0V125.44h17.947V157.529z"/>
	<path fill="#D2A786" d="M104.412,147.306c5.323,3.095,11.425,4.997,17.947,5.317V125.44h-17.947V147.306z"/>
	<g>
		<path fill="#E8B894" d="M152.733,108.722L152.733,108.722c-4.831,0-8.748-3.917-8.748-8.749v-3.737
			c0-4.832,3.917-8.749,8.748-8.749l0,0c4.832,0,8.749,3.917,8.749,8.749v3.737C161.482,104.805,157.565,108.722,152.733,108.722z"
			/>
		<path fill="#E8B894" d="M74.036,108.722L74.036,108.722c-4.831,0-8.749-3.917-8.749-8.749v-3.737c0-4.832,3.917-8.749,8.749-8.749
			l0,0c4.833,0,8.749,3.917,8.749,8.749v3.737C82.785,104.805,78.868,108.722,74.036,108.722z"/>
	</g>
	<path fill="#FDCAA4" d="M113.385,146.303L113.385,146.303c-21.934,0-39.715-17.781-39.715-39.716V89.622
		c0-21.934,17.781-39.715,39.715-39.715l0,0c21.934,0,39.715,17.781,39.715,39.715v16.965
		C153.1,128.521,135.318,146.303,113.385,146.303z"/>
	<path fill="#BD5D27" d="M138.36,80.893c-11.695,6.329-25.987,7.672-38.658,3.634c1.987-0.395,3.974-0.789,5.961-1.184
		c-5.507-2.557-12.672-1.659-18.093,1.076c-5.422,2.734-9.879,7.016-14.248,11.233c-6.835-11.195-9.139-24.899-5.002-37.347
		c0.878,0.542,1.746,0.871,2.624,1.412c1.125-11.239,5.418-22.144,12.258-31.132c-0.254,1.898,0.169,3.88,1.178,5.508
		c1.978-4.117,4.935-8.377,8.065-11.702c-1.629,2.267-1.055,5.598,0.723,7.751c1.778,2.153,4.485,3.32,7.184,4.036
		c5.715,1.517,11.725,1.337,17.636,1.197c5.912-0.14,11.938-0.215,17.6,1.493c5.661,1.708,10.999,5.506,13.09,11.037
		c2.7,0.948,4.534,3.247,5.648,5.884c1.113,2.636,1.431,5.535,1.604,8.392c0.63,10.361-0.486,20.826-3.285,30.821
		C150.096,87.225,144.432,82.629,138.36,80.893z"/>
	<path opacity="0.05" fill="#010101" d="M153.984,87.586c1.801-8.327,2.462-16.901,1.946-25.406
		c-0.174-2.857-0.491-5.755-1.604-8.392c-1.114-2.637-2.948-4.936-5.648-5.884c-2.091-5.531-7.429-9.329-13.09-11.037
		c-5.662-1.708-11.688-1.633-17.6-1.493c-1.529,0.036-3.066,0.075-4.604,0.086v168.917h27.706h8.973v-24.533
		c0-2.813-0.428-5.527-1.222-8.08c-0.133-0.426-0.274-0.846-0.427-1.262c-3.81-10.404-13.8-17.83-25.523-17.83h-0.075h0.001h-0.459
		v-7.4c16.945-3.916,29.743-18.665,30.685-36.566c4.687-0.164,8.439-4.006,8.439-8.733v-3.737
		C161.482,91.83,158.222,88.195,153.984,87.586z"/>
</g>
</svg>
